<svg xmlns="http://www.w3.org/2000/svg" viewBox="0 0 64.95 65"><defs><style>.cls-1{fill:#fff;}</style></defs><title>f-fam</title><g id="Layer_2" data-name="Layer 2"><g id="Layer_2-2" data-name="Layer 2"><path class="cls-1" d="M43.81,28.08a1.54,1.54,0,1,0,1.54,1.54A1.55,1.55,0,0,0,43.81,28.08Z"/><path class="cls-1" d="M52.66,28.08a1.54,1.54,0,1,0,1.54,1.54A1.54,1.54,0,0,0,52.66,28.08Z"/><path class="cls-1" d="M12.29,28.08a1.54,1.54,0,1,0,1.54,1.54A1.55,1.55,0,0,0,12.29,28.08Z"/><path class="cls-1" d="M21.14,28.08a1.54,1.54,0,1,0,1.54,1.54A1.54,1.54,0,0,0,21.14,28.08Z"/><path class="cls-1" d="M64.42,50a1,1,0,0,0-1.85.47,14.07,14.07,0,0,1,.44,2.8H45A3.42,3.42,0,0,0,44.2,53V53a12,12,0,0,0-5.52-10.11,14.71,14.71,0,0,1,4.89-2.75,4.95,4.95,0,0,0,9.3,0,14.79,14.79,0,0,1,8.38,7,1,1,0,1,0,1.67-.91,17,17,0,0,0-2.72-3.69,7.7,7.7,0,0,0,2.26-3c2.49-5.3,2.49-15.42.74-20a16,16,0,0,0-25.55-6.32,1,1,0,0,0,1.26,1.43,14.13,14.13,0,0,1,22.51,5.57C63,24.35,63,33.89,60.75,38.71a5.3,5.3,0,0,1-2,2.48,16.89,16.89,0,0,0-5.51-3A11.66,11.66,0,0,0,59.9,27.71V25.78a1,1,0,0,0-.79-.94c-4.72-.81-8-5.59-8-5.64a1,1,0,0,0-1.67.17c0,.06-2.34,5.46-11.91,5.46a1,1,0,0,0-1,1v1.93a11.68,11.68,0,0,0,6.64,10.52,16.59,16.59,0,0,0-5.5,3,5.36,5.36,0,0,1-2-2.48c-2.27-4.82-2.27-14.36-.68-18.5a14.19,14.19,0,0,1,1.51-2.89A1,1,0,1,0,35,16.25a16,16,0,0,0-1.72,3.28c-1.75,4.57-1.76,14.69.73,20a9.64,9.64,0,0,0,1.06,1.77,11.72,11.72,0,0,0-2.6-.35,8.25,8.25,0,0,1,0-2.62,1,1,0,0,0-.73-1.13.94.94,0,0,0-1.13.72,8.52,8.52,0,0,0-.13,2.45,4,4,0,0,1-1.8-2.49,1,1,0,0,0-1.88.31,6,6,0,0,0,1.93,3.26l-.87.3a16.62,16.62,0,0,0-6.14-3.51,11.65,11.65,0,0,0,4.85-4.32A3.47,3.47,0,0,0,31,28.83c2.48-7.21,1.39-11.44,0-13.72A8.71,8.71,0,0,0,24.56,11a8.21,8.21,0,0,0-4.51.67c-1.32-1.58-2.83-2.42-6-2.42A14.3,14.3,0,0,0,2.73,15.17C-.25,19.7.83,25,2.38,28.88a3.53,3.53,0,0,0-.59,1.95,3.46,3.46,0,0,0,5.05,3.08,11.75,11.75,0,0,0,4.84,4.32,16.58,16.58,0,0,0-7,4.38,1,1,0,0,0,0,1.26A1,1,0,0,0,6,43.92a14.82,14.82,0,0,1,6-3.81,4.95,4.95,0,0,0,9.3,0A14.87,14.87,0,0,1,26,42.65,12,12,0,0,0,20.15,53V53a3.42,3.42,0,0,0-.79.22H1.93a14.86,14.86,0,0,1,1.94-6.47,1,1,0,0,0-.34-1.3,1,1,0,0,0-1.31.35A16.76,16.76,0,0,0,0,54.18v0a1,1,0,0,0,1,1H17.5a3.47,3.47,0,0,0,3.22,4.76,3.55,3.55,0,0,0,1.44-.31,12,12,0,0,0,20,0,3.47,3.47,0,0,0,4.65-4.45H64a1,1,0,0,0,1-1v0A16.83,16.83,0,0,0,64.42,50ZM28.17,32.4a1.58,1.58,0,0,1-.71-.17,11.49,11.49,0,0,0,.81-3,1.57,1.57,0,0,1-.1,3.13ZM4.32,16.22a12.27,12.27,0,0,1,9.77-5.09c3,0,3.88.87,4.94,2.3a1,1,0,0,0,1.29.22,6.32,6.32,0,0,1,4-.79,6.88,6.88,0,0,1,5.08,3.23c1.61,2.65,1.61,6.61,0,11.5a3.65,3.65,0,0,0-1-.23V25.78a1,1,0,0,0-.79-.94c-4.72-.81-8-5.59-8-5.64a1,1,0,0,0-1.67.16,7.84,7.84,0,0,1-2.34,2.73C13.26,23.88,10,24.83,6,24.83a1,1,0,0,0-1,1v1.58a3.81,3.81,0,0,0-1.12.26C2.21,23.06,2.34,19.23,4.32,16.22ZM5.26,32.4a1.57,1.57,0,0,1-.11-3.13A11.71,11.71,0,0,0,6,32.22,1.58,1.58,0,0,1,5.26,32.4Zm1.72-4H7q0-.32,0-.63v-1c7.23-.26,10.58-3.44,11.94-5.3a15.55,15.55,0,0,0,7.58,5.13v1.16c0,.21,0,.42,0,.63h0A9.76,9.76,0,0,1,7,28.35Zm9.73,13.11a3,3,0,0,1-2.79-1.83,15.16,15.16,0,0,1,2.79-.26,15.35,15.35,0,0,1,2.8.26A3.06,3.06,0,0,1,16.71,41.46Zm31.52,0a3,3,0,0,1-2.79-1.83,15.24,15.24,0,0,1,2.79-.26,14.45,14.45,0,0,1,2.8.27A3.06,3.06,0,0,1,48.23,41.46ZM38.47,27.71v-1c7.23-.25,10.58-3.43,11.94-5.29A15.55,15.55,0,0,0,58,26.55v1.16a9.76,9.76,0,0,1-19.52,0ZM20.72,58A1.57,1.57,0,0,1,20.31,55a11.65,11.65,0,0,0,.91,3A1.43,1.43,0,0,1,20.72,58ZM32.18,63.1A10.13,10.13,0,1,1,42.3,53,10.14,10.14,0,0,1,32.18,63.1ZM43.63,58a1.43,1.43,0,0,1-.5-.09A11.65,11.65,0,0,0,44,55,1.57,1.57,0,0,1,43.63,58Z"/><path class="cls-1" d="M27.75,52.57a1.54,1.54,0,1,0,1.54,1.54A1.54,1.54,0,0,0,27.75,52.57Z"/><path class="cls-1" d="M36.6,52.57a1.54,1.54,0,1,0,1.55,1.54A1.54,1.54,0,0,0,36.6,52.57Z"/><path class="cls-1" d="M30,9.18a16.66,16.66,0,0,0,3.08,2.07,1,1,0,0,0,.84,0A16.66,16.66,0,0,0,37,9.18c2.1-1.8,3.06-3.79,2.79-5.74A3.73,3.73,0,0,0,36.36,0,3.92,3.92,0,0,0,33.49.9,3.92,3.92,0,0,0,30.62,0a3.73,3.73,0,0,0-3.43,3.43C26.93,5.39,27.89,7.38,30,9.18ZM29.08,3.7a1.83,1.83,0,0,1,1.7-1.79H31a1.65,1.65,0,0,1,1.62.94,1,1,0,0,0,.91.66,1,1,0,0,0,.91-.66,1.7,1.7,0,0,1,1.8-.93A1.83,1.83,0,0,1,37.9,3.7c.33,2.44-2.76,4.7-4.41,5.61C31.84,8.4,28.74,6.14,29.08,3.7Z"/></g></g></svg>