<svg xmlns="http://www.w3.org/2000/svg" viewBox="0 0 65.08 65"><defs><style>.cls-1{fill:#fff;}</style></defs><title>f-love</title><g id="Layer_2" data-name="Layer 2"><g id="Layer_2-2" data-name="Layer 2"><path class="cls-1" d="M49.7,55.87l-2,1.08c-5.62,3.11-12,6.63-18.1,6.09L8,61.11h-6V50.4h6a.93.93,0,0,0,.62-.23,25.26,25.26,0,0,1,2.91-2,1,1,0,1,0-1-1.63,27.9,27.9,0,0,0-2.88,2H1a1,1,0,0,0-.95.95V62.06A1,1,0,0,0,1,63H7.83l21.63,1.93c.49,0,1,.06,1.46.06,6.2,0,12.3-3.38,17.73-6.38l2-1.08a1,1,0,0,0-.91-1.67Z"/><path class="cls-1" d="M64.34,45.31A3.63,3.63,0,0,0,60,44.14a3.3,3.3,0,0,0-4.83-2.71l-2.28,1.19a3.26,3.26,0,0,0-4.82-2.7l-1.7.92A3.41,3.41,0,0,0,45.74,39a3.35,3.35,0,0,0-4.28-1L29.2,44.42a21.13,21.13,0,0,0-10.9-1A21.52,21.52,0,0,0,14,44.73a1,1,0,1,0,.74,1.76,19.74,19.74,0,0,1,3.93-1.2,19.29,19.29,0,0,1,10.22,1.05h0l.08,0H42a1.65,1.65,0,0,1,.21,3.28l-16.17,2a1,1,0,0,0-.84,1,1,1,0,0,0,.84.94l6.87.83A31.43,31.43,0,0,0,52,50.72L60.63,46A1.74,1.74,0,0,1,62.26,49l-9.21,5a1,1,0,0,0,.45,1.79,1,1,0,0,0,.46-.12l9.21-5A3.65,3.65,0,0,0,65,48.27,3.6,3.6,0,0,0,64.34,45.31ZM49,41.6a1.37,1.37,0,0,1,1.82.49A1.38,1.38,0,0,1,50.29,44h0l-5,2.64a3.57,3.57,0,0,0-2.06-1.92L44.63,44h0Zm-6.66-1.91a1.47,1.47,0,0,1,2.11,1.63,1.44,1.44,0,0,1-.73,1L39.6,44.52H33.13Zm8.77,9.37A29.65,29.65,0,0,1,34,52.67l8.46-1.07a3.56,3.56,0,0,0,3-2.92l5.67-3h0l4.91-2.58a1.4,1.4,0,0,1,1.78.43,1.36,1.36,0,0,1,.22,1.11,1.32,1.32,0,0,1-.68.91Z"/><path class="cls-1" d="M16.48,20.12a.94.94,0,0,0,.37-1.29A13.73,13.73,0,0,1,15,10.14c.65-4.77,3.65-7.83,8-8.2,4-.33,7.7,1.75,8.67,4.84a1,1,0,0,0,1.82,0c1-3.09,4.7-5.17,8.67-4.84,4.37.37,7.37,3.43,8,8.2a13.78,13.78,0,0,1-2,8.86A29.2,29.2,0,0,1,42,26.23a52.39,52.39,0,0,1-9.38,6.35c-1.8-.94-9-4.94-13.69-10.77A1,1,0,0,0,17.39,23C23,30,31.78,34.33,32.15,34.51a1,1,0,0,0,.84,0A53,53,0,0,0,43.17,27.7,31,31,0,0,0,49.84,20,15.66,15.66,0,0,0,52.06,9.88a11.54,11.54,0,0,0-3.51-7.19A10.46,10.46,0,0,0,42.31,0a11.7,11.7,0,0,0-6.5,1.34A9.1,9.1,0,0,0,32.57,4.3a9.1,9.1,0,0,0-3.24-2.92A11.7,11.7,0,0,0,22.83,0a10.46,10.46,0,0,0-6.24,2.65,11.54,11.54,0,0,0-3.51,7.19,15.53,15.53,0,0,0,2.11,9.88A.94.94,0,0,0,16.48,20.12Z"/><path class="cls-1" d="M27,14a1.85,1.85,0,1,0-1.85,1.85A1.85,1.85,0,0,0,27,14Z"/><path class="cls-1" d="M41.84,14A1.85,1.85,0,1,0,40,15.86,1.85,1.85,0,0,0,41.84,14Z"/><path class="cls-1" d="M32.57,20.28a4.23,4.23,0,0,0,4-3,1,1,0,1,0-1.82-.57,2.34,2.34,0,0,1-4.46,0,1,1,0,0,0-1.19-.63,1,1,0,0,0-.63,1.2A4.23,4.23,0,0,0,32.57,20.28Z"/></g></g></svg>