<svg xmlns="http://www.w3.org/2000/svg" viewBox="0 0 660.45 245.37"><defs><style>.cls-1{fill:#666766;}.cls-2{fill:#231f20;}.cls-3{fill:#0d71ba;}</style></defs><title>cof-full</title><g id="Layer_2" data-name="Layer 2"><g id="Layer_1-2" data-name="Layer 1"><path class="cls-1" d="M206.76,218.93a96.54,96.54,0,0,1-70.95-31.31,89.63,89.63,0,0,1-21.9,15.19,122.5,122.5,0,0,0,186-.43,89.29,89.29,0,0,1-21.68-15.33A96,96,0,0,1,206.76,218.93Z"/><path class="cls-1" d="M206.76,0a123.21,123.21,0,0,0-92.94,42.69,89.39,89.39,0,0,1,21.91,15.16,96,96,0,0,1,142.59.56A89,89,0,0,1,300,43.12,122.43,122.43,0,0,0,206.76,0Z"/><path class="cls-2" d="M401.49,74.29H333.2v29.13h67.38v22.89H333.2v68.93H305.6V50.13h95.89Z"/><path d="M97.56,163.51a44.32,44.32,0,0,1-22.91,5.85,45.86,45.86,0,0,1-18.44-3.75,49.51,49.51,0,0,1-15.13-10.14A47.93,47.93,0,0,1,30.86,140.6a43.59,43.59,0,0,1-3.76-17.91,44.13,44.13,0,0,1,3.76-18.1A48,48,0,0,1,41.08,89.73,49.51,49.51,0,0,1,56.21,79.59a47.2,47.2,0,0,1,40.91,1.92,49.08,49.08,0,0,1,16.69,14.95l.5-.51A96,96,0,0,1,126,70.38a78.66,78.66,0,0,0-18.36-12.73,72.34,72.34,0,0,0-33-7.52,76.14,76.14,0,0,0-29.19,5.6A72.8,72.8,0,0,0,5.82,94.28a72.25,72.25,0,0,0,0,56.82,72.35,72.35,0,0,0,15.91,23,75.77,75.77,0,0,0,52.92,21.15,72.34,72.34,0,0,0,33-7.52,78.42,78.42,0,0,0,18.31-12.8A96,96,0,0,1,114,148.26,52,52,0,0,1,97.56,163.51Z"/><path class="cls-3" d="M280.26,122.69A69.51,69.51,0,0,1,274.41,151a72.43,72.43,0,0,1-16,23.08,76.39,76.39,0,0,1-23.58,15.47,75.25,75.25,0,0,1-57.36,0,76.17,76.17,0,0,1-23.66-15.47,72.55,72.55,0,0,1-16-23,72.24,72.24,0,0,1,0-56.91,72.27,72.27,0,0,1,16-23.08,75.34,75.34,0,0,1,52.39-21,73.93,73.93,0,0,1,68.19,44.15A69.32,69.32,0,0,1,280.26,122.69Zm-27.1,0a44.89,44.89,0,0,0-3.68-18.1,47.57,47.57,0,0,0-10.07-14.86,48.7,48.7,0,0,0-15-10.14,46.41,46.41,0,0,0-36.6,0,48.7,48.7,0,0,0-15,10.14,47.57,47.57,0,0,0-10.07,14.86,46.11,46.11,0,0,0,0,36.1,47.07,47.07,0,0,0,10.07,14.95,48.35,48.35,0,0,0,15,10.14,46.41,46.41,0,0,0,36.6,0,48.35,48.35,0,0,0,15-10.14,47.07,47.07,0,0,0,10.07-14.95A45,45,0,0,0,253.16,122.69Z"/><path d="M426.5,100.82v18.35H416.28v18.42H426.5v58.08h21.05V137.59h13.29V119.17H447.55V106.68c0-4.87-.23-12.86,11.25-12.86l10.52,0V74.4H453.39C431.41,74.39,426.5,89.24,426.5,100.82Z"/><path d="M546.48,121.45A46.75,46.75,0,0,0,532,112.32a45.52,45.52,0,0,0-17.1-3.29,44,44,0,0,0-17.53,3.51A46.35,46.35,0,0,0,483.06,122a43.74,43.74,0,0,0-9.65,14.11,44.46,44.46,0,0,0,0,34.63,44.33,44.33,0,0,0,9.57,14.1,45.34,45.34,0,0,0,14.32,9.5,44.89,44.89,0,0,0,17.76,3.51,57.67,57.67,0,0,0,17.75-2.71A58.89,58.89,0,0,0,550,185.89l-13.3-13.29a28,28,0,0,1-9.49,5.33,34.8,34.8,0,0,1-11.4,2,25.06,25.06,0,0,1-8.55-1.39,24.29,24.29,0,0,1-6.94-3.8,22.75,22.75,0,0,1-5.19-5.7,29.2,29.2,0,0,1-3.29-6.94h67.51q.3-2.32.51-4.53a41.37,41.37,0,0,0,.22-4.23,42.74,42.74,0,0,0-13.58-31.86Zm-54.66,23.67a25.55,25.55,0,0,1,8.77-12.93,22.48,22.48,0,0,1,14.18-4.89,23,23,0,0,1,14.39,4.89A25.37,25.37,0,0,1,538,145.12Z"/><path d="M656.8,135.41a43,43,0,0,0-9.94-14,46.59,46.59,0,0,0-14.46-9.13A45.52,45.52,0,0,0,615.3,109a44,44,0,0,0-17.54,3.51A46.43,46.43,0,0,0,583.45,122a43.74,43.74,0,0,0-9.65,14.11,44.46,44.46,0,0,0,0,34.63,44.33,44.33,0,0,0,9.57,14.1,45.34,45.34,0,0,0,14.32,9.5,44.89,44.89,0,0,0,17.76,3.51,57.67,57.67,0,0,0,17.75-2.71,58.89,58.89,0,0,0,17.17-9.28l-13.3-13.29a28,28,0,0,1-9.5,5.33,34.69,34.69,0,0,1-11.39,2,25.06,25.06,0,0,1-8.55-1.39,24.29,24.29,0,0,1-6.94-3.8,22.75,22.75,0,0,1-5.19-5.7,29.2,29.2,0,0,1-3.29-6.94h67.51q.3-2.32.51-4.53a41.37,41.37,0,0,0,.22-4.23A43.14,43.14,0,0,0,656.8,135.41Zm-64.59,9.71A25.55,25.55,0,0,1,601,132.19a22.48,22.48,0,0,1,14.18-4.89,23,23,0,0,1,14.39,4.89,25.37,25.37,0,0,1,8.84,12.93Z"/></g></g></svg>