<svg xmlns="http://www.w3.org/2000/svg" viewBox="0 0 107.37 65.62"><defs><style>.cls-1{fill:#666667;}.cls-2{fill:#0d72b9;}</style></defs><title>cof-cafe</title><g id="Layer_2" data-name="Layer 2"><g id="Layer_2-2" data-name="Layer 2"><path class="cls-1" d="M55.29,58.55a25.83,25.83,0,0,1-19-8.38,23.92,23.92,0,0,1-5.86,4.07,32.76,32.76,0,0,0,49.75-.12,23.7,23.7,0,0,1-5.8-4.1A25.7,25.7,0,0,1,55.29,58.55Z"/><path class="cls-1" d="M55.29,0A32.92,32.92,0,0,0,30.44,11.42a23.57,23.57,0,0,1,5.86,4.05,25.68,25.68,0,0,1,38.13.15,23.72,23.72,0,0,1,5.81-4.09A32.76,32.76,0,0,0,55.29,0Z"/><path d="M107.37,19.87H89.11v7.79h18v6.12h-18V52.21H81.73V13.41h25.64Z"/><path d="M26.09,43.73A11.92,11.92,0,0,1,20,45.29a12.24,12.24,0,0,1-4.93-1,13.27,13.27,0,0,1-4-2.71,12.8,12.8,0,0,1-2.74-4,11.69,11.69,0,0,1-1-4.79,11.82,11.82,0,0,1,1-4.84A12.64,12.64,0,0,1,11,24a13.3,13.3,0,0,1,4-2.72,12.24,12.24,0,0,1,4.93-1,12.17,12.17,0,0,1,6,1.52,13.05,13.05,0,0,1,4.47,4l.13-.14a25.57,25.57,0,0,1,3.12-6.84,21,21,0,0,0-4.91-3.4,19.38,19.38,0,0,0-8.82-2,20.48,20.48,0,0,0-7.8,1.49A19.45,19.45,0,0,0,1.56,25.21a19.29,19.29,0,0,0,0,15.2,19.3,19.3,0,0,0,4.25,6.15A20.33,20.33,0,0,0,20,52.21a19.38,19.38,0,0,0,8.82-2,20.83,20.83,0,0,0,4.89-3.42,25.76,25.76,0,0,1-3.19-7.13A13.91,13.91,0,0,1,26.09,43.73Z"/><path class="cls-2" d="M75,32.81a18.46,18.46,0,0,1-1.57,7.57,19.26,19.26,0,0,1-4.27,6.18,20.43,20.43,0,0,1-6.3,4.13,20.11,20.11,0,0,1-15.34,0,20.22,20.22,0,0,1-6.33-4.13,19.35,19.35,0,0,1-4.27-6.15,19.23,19.23,0,0,1,0-15.22A19.11,19.11,0,0,1,41.14,19a20.1,20.1,0,0,1,28,0,19.55,19.55,0,0,1,4.27,6.17A18.47,18.47,0,0,1,75,32.81Zm-7.25,0a12.14,12.14,0,0,0-1-4.84A12.7,12.7,0,0,0,64,24a13.12,13.12,0,0,0-4-2.72,12,12,0,0,0-4.87-1,12.13,12.13,0,0,0-4.92,1,13,13,0,0,0-4,2.72,12.7,12.7,0,0,0-2.7,4,12.39,12.39,0,0,0,0,9.66,12.76,12.76,0,0,0,6.7,6.7,12.13,12.13,0,0,0,4.92,1,12,12,0,0,0,4.87-1,12.76,12.76,0,0,0,6.7-6.7A12.22,12.22,0,0,0,67.7,32.81Z"/></g></g></svg>