<svg xmlns="http://www.w3.org/2000/svg" viewBox="0 0 52.83 65"><defs><style>.cls-1{fill:#fff;}</style></defs><title>f-enjoy</title><g id="Layer_2" data-name="Layer 2"><g id="Layer_2-2" data-name="Layer 2"><path class="cls-1" d="M50.3,5.87H47.14l-.88-4.25a2,2,0,0,0-2-1.62H8.55a2,2,0,0,0-2,1.62L5.69,5.87H2.53A2.54,2.54,0,0,0,0,8.4v4.19a2.54,2.54,0,0,0,2.53,2.53H3.77l.71,4.94a2.39,2.39,0,0,0-.58.47,2.26,2.26,0,0,0-.52,1.78l4.7,33a2.25,2.25,0,0,0,1.68,1.85l.66,4.7A3.69,3.69,0,0,0,14.05,65H38.78a3.67,3.67,0,0,0,3.62-3.14l.67-4.7a2.26,2.26,0,0,0,1.68-1.85l4.7-33a2.23,2.23,0,0,0-.53-1.78,2.34,2.34,0,0,0-.57-.47l.7-4.94H50.3a2.54,2.54,0,0,0,2.53-2.53V8.4A2.54,2.54,0,0,0,50.3,5.87ZM47.56,22l-4.7,33a.32.32,0,0,1-.32.28H33.42a.95.95,0,1,0,0,1.9h7.72l-.63,4.37a1.75,1.75,0,0,1-1.73,1.5H14.05a1.76,1.76,0,0,1-1.74-1.5l-.62-4.37H29a1,1,0,1,0,0-1.9H10.28A.31.31,0,0,1,10,55L5.27,22a.34.34,0,0,1,.07-.26.35.35,0,0,1,.23-.11H47.26a.32.32,0,0,1,.22.11A.3.3,0,0,1,47.56,22ZM5.7,15.12H47.13l-.66,4.65H6.36Zm45.22-2.53a.62.62,0,0,1-.62.62H2.53a.62.62,0,0,1-.62-.62V8.4a.62.62,0,0,1,.62-.62h8.53a1,1,0,0,0,0-1.91H7.64L8.44,2a.12.12,0,0,1,.11-.09H44.27a.12.12,0,0,1,.12.09l.8,3.87H15.49a1,1,0,0,0,0,1.91H50.3a.62.62,0,0,1,.62.62Z"/><path class="cls-1" d="M33.58,30.65l0,0c-3.17-3.13-8.94-2.48-12.88,1.46a11.54,11.54,0,0,0-3.39,6.64A7.36,7.36,0,0,0,19.24,45h0a7.13,7.13,0,0,0,5.12,2A10.9,10.9,0,0,0,25.51,47a11.54,11.54,0,0,0,6.64-3.39c4-4,4.6-9.74,1.44-12.91ZM19.18,39A9.67,9.67,0,0,1,22,33.44a9.34,9.34,0,0,1,6.4-2.9,5.7,5.7,0,0,1,2.71.64c-1.6,1-4.09,2.82-4.84,5.59-.66,2.41-4.23,5.08-6.19,6.32A5.73,5.73,0,0,1,19.18,39ZM30.8,42.21a9.67,9.67,0,0,1-5.52,2.85,5.93,5.93,0,0,1-3.7-.65c2-1.3,5.73-4.12,6.55-7.13.68-2.47,3.33-4.13,4.55-4.77C34.56,35,33.8,39.21,30.8,42.21Z"/></g></g></svg>