<svg xmlns="http://www.w3.org/2000/svg" viewBox="0 0 74.87 65"><defs><style>.cls-1{fill:#fff;}</style></defs><title>f-friend</title><g id="Layer_2" data-name="Layer 2"><g id="Layer_2-2" data-name="Layer 2"><path class="cls-1" d="M64.58,34.07a1.1,1.1,0,0,0,1.1-1.1v-2a1.1,1.1,0,0,0-2.2,0v2A1.1,1.1,0,0,0,64.58,34.07Z"/><path class="cls-1" d="M63.19,37.07H66a1.1,1.1,0,1,0,0-2.19H63.19a1.1,1.1,0,1,0,0,2.19Z"/><path class="cls-1" d="M43.59,34.07A1.09,1.09,0,0,0,44.68,33v-2a1.1,1.1,0,1,0-2.19,0v2A1.1,1.1,0,0,0,43.59,34.07Z"/><path class="cls-1" d="M45,34.88H42.2a1.1,1.1,0,1,0,0,2.19H45a1.1,1.1,0,0,0,0-2.19Z"/><path class="cls-1" d="M53,34.3a1.1,1.1,0,0,0-1.65,1.45,3.65,3.65,0,0,0,5.41,0,1.1,1.1,0,0,0-1.66-1.45,1.37,1.37,0,0,1-1.05.46A1.39,1.39,0,0,1,53,34.3Z"/><path class="cls-1" d="M31.29,34.07A1.09,1.09,0,0,0,32.38,33v-2a1.1,1.1,0,1,0-2.19,0v2A1.1,1.1,0,0,0,31.29,34.07Z"/><path class="cls-1" d="M29.9,37.07h2.78a1.1,1.1,0,0,0,0-2.19H29.9a1.1,1.1,0,1,0,0,2.19Z"/><path class="cls-1" d="M10.29,34.07a1.1,1.1,0,0,0,1.1-1.1v-2a1.1,1.1,0,1,0-2.19,0v2A1.09,1.09,0,0,0,10.29,34.07Z"/><path class="cls-1" d="M8.9,37.07h2.78a1.1,1.1,0,1,0,0-2.19H8.9a1.1,1.1,0,0,0,0,2.19Z"/><path class="cls-1" d="M20.79,37a3.59,3.59,0,0,0,2.7-1.2,1.1,1.1,0,0,0-1.65-1.45,1.39,1.39,0,0,1-1.05.46,1.37,1.37,0,0,1-1.05-.46,1.1,1.1,0,1,0-1.65,1.45A3.59,3.59,0,0,0,20.79,37Z"/><path class="cls-1" d="M6.22,45.07a5.23,5.23,0,0,0-1.38,1.77,5.72,5.72,0,0,0,1.77,7A20.27,20.27,0,0,0,3.9,63.9,1.1,1.1,0,0,0,5,65H69.88A1.1,1.1,0,0,0,71,63.9a20.28,20.28,0,0,0-2.72-10.07,5.71,5.71,0,0,0,1.77-7,5.23,5.23,0,0,0-1.38-1.77,21.46,21.46,0,0,0,3.46-25.64A1.1,1.1,0,0,0,70.62,19a1.11,1.11,0,0,0-.42,1.5,19.25,19.25,0,0,1,2.31,6.88l-.08-.06A41.09,41.09,0,0,0,66.11,23c-.83-.45-1.68-.87-2.55-1.25A23.69,23.69,0,0,1,55,15.6a1.08,1.08,0,0,0-.87-.43,1.11,1.11,0,0,0-.85.4l0,0a23.3,23.3,0,0,1-8.6,6.2,30.83,30.83,0,0,0-3.91,2h0a21,21,0,0,0-2-4.57,18.36,18.36,0,0,1,29.09-2.08,1.09,1.09,0,0,0,1.55.08,1.08,1.08,0,0,0,.08-1.54A20.59,20.59,0,0,0,61,10a7.4,7.4,0,1,0-13.88,0,20.73,20.73,0,0,0-9.7,7.29,21.13,21.13,0,0,0-2-2.34,20.52,20.52,0,0,0-28.82-.47,1.1,1.1,0,1,0,1.51,1.59,18.32,18.32,0,0,1,25.75.42,19.13,19.13,0,0,1,2.61,3.3s0,0,0,0a18.9,18.9,0,0,1,2.34,5.6,18.1,18.1,0,0,0-5.9-1.92c-1.31-.25-2.63-.46-3.95-.66-4.55-.71-9.84-1.17-13.48-4.32a2.33,2.33,0,0,0-3.67,1,18.33,18.33,0,0,1-2.68,5.13,10.93,10.93,0,0,1-3.94,3.3,9.44,9.44,0,0,1-3,.87,19.11,19.11,0,0,1,3.21-9.56A1.1,1.1,0,1,0,3.62,18a21.47,21.47,0,0,0,2.6,27ZM48.87,7.41a5.22,5.22,0,1,1,10.05,2c-.7-.17-1.4-.29-2.11-.39a20.63,20.63,0,0,0-2.73-.18,20.93,20.93,0,0,0-4.83.57A5.22,5.22,0,0,1,48.87,7.41ZM37.43,42.66a21.74,21.74,0,0,0,2.62,3,25.3,25.3,0,0,0-2.55-.14,24.52,24.52,0,0,0-2.72.16A21.39,21.39,0,0,0,37.43,42.66Zm13.34,8.23a21.08,21.08,0,0,0,4.42.24,20.13,20.13,0,0,0,2.59-.31,3.78,3.78,0,0,1-7.4,0Zm-31.09.24c.56,0,1.12,0,1.68,0a20.38,20.38,0,0,0,3.13-.33,3.78,3.78,0,0,1-7.4,0A20.34,20.34,0,0,0,19.68,51.13ZM6.82,47.79a3,3,0,0,1,1-1.22,21,21,0,0,0,4,2.52h0a3.22,3.22,0,0,1,.26,1.43A2.64,2.64,0,0,1,9.6,52.75,2.79,2.79,0,0,1,8,52.13,3.52,3.52,0,0,1,6.82,47.79Zm1.75,7,.26.06a4.47,4.47,0,0,0,3.11-.62A4.87,4.87,0,0,0,14,52a4.37,4.37,0,0,0,.31-1.86v0c.18.07.37.12.56.18a6,6,0,0,0,11.93,0,21.63,21.63,0,0,0,2-.74l0,0A22,22,0,0,1,32.53,54a19.66,19.66,0,0,1,2.34,5.28,17.38,17.38,0,0,1,.58,3.51H30.92V58.57a1.1,1.1,0,1,0-2.19,0v4.24H12.85V58.57a1.1,1.1,0,1,0-2.19,0v4.24H6.13A18.33,18.33,0,0,1,8.57,54.81Zm55.65,8V58.57a1.1,1.1,0,0,0-2.2,0v4.24H37.65v-.05a20.37,20.37,0,0,0-1.42-6.31,23.09,23.09,0,0,0-2.89-5.12,24.61,24.61,0,0,0-2.26-2.64l0,0a21.44,21.44,0,0,1,6.45-1,20.48,20.48,0,0,1,7.63,1.43,19.72,19.72,0,0,0,3,1.17,6,6,0,0,0,11.93,0l.56-.18v0a4.27,4.27,0,0,0,.27,1.77A4.83,4.83,0,0,0,62.61,54a4.48,4.48,0,0,0,3.69.77,18.22,18.22,0,0,1,2.45,8Zm2.65-10.68a2.4,2.4,0,0,1-2.78.25A2.82,2.82,0,0,1,63,51.23a2.77,2.77,0,0,1,.08-2.13h0A20.91,20.91,0,0,0,67,46.57a3.06,3.06,0,0,1,1.06,1.22A3.54,3.54,0,0,1,66.87,52.13ZM62.68,23.8a32.73,32.73,0,0,1,4.37,2.34,40.08,40.08,0,0,1,5.6,4.28l0,0a18.93,18.93,0,0,1-14.38,18,18.41,18.41,0,0,1-19.56-7.78,20.86,20.86,0,0,0,1.58-3.43v0A21.36,21.36,0,0,0,41.48,28V27.9c-.06-.61-.14-1.22-.25-1.83a32.17,32.17,0,0,1,4.26-2.27,26.76,26.76,0,0,0,8.59-5.88A27,27,0,0,0,62.68,23.8ZM2.31,31a11.86,11.86,0,0,0,3.36-.85,12.69,12.69,0,0,0,4.41-3.23,20.46,20.46,0,0,0,3.83-6.7s0,0,0,0h0l0,0h.09c3.59,3.11,9.43,4,14.57,4.83a33.92,33.92,0,0,1,8.11,1.81c1.31.56,2.63,1.53,2.63,3.12v0a19.3,19.3,0,0,1-1,6.08A18.83,18.83,0,0,1,25.07,48.45a18.22,18.22,0,0,1-8.08.11A18.91,18.91,0,0,1,2.22,31Z"/></g></g></svg>